<?xml version="1.0" encoding="UTF-8"?>
<svg id="Layer_1" xmlns="http://www.w3.org/2000/svg" version="1.1" viewBox="0 0 256 64">
  <!-- Generator: Adobe Illustrator 29.0.0, SVG Export Plug-In . SVG Version: 2.1.0 Build 186)  -->
  <defs>
    <style>
      .st0 {
        fill: #2e3191;
      }

      .st1 {
        fill: #eb1f25;
      }
    </style>
  </defs>
  <g>
    <path class="st1" d="M11.97,14.4c2.65-2.83,3.14-6.7.98-8.47s-6.19-1.32-8.65,1.68c0,0-2.69,3.29-2.27,8.75.24,3.18,1.36,4.02,2.24,4.17.54.09,1.08-.09,1.51-.43.95-.75,3.62-2.93,6.2-5.69h0Z"/>
    <g>
      <path class="st0" d="M27.38,35.26c-2.69-7.13,4.36-13.92,7.03-16.11,1.11-.91,2.49-2.03,3.42-3.12.29-.35.56-.68.79-1,2.25-3.12-.14-7.57-3.97-7.35-3.23.18-6.76,1.67-8.27,2.35-.45.2-1.31.62-2.43,1.23h0s-13.65,6.63-16.47,16.28c0,.01,0,.02-.01.04-.06.22-.12.44-.17.66-.02.08-.04.16-.06.24h.01c-.18.85-.28,1.71-.28,2.59.08,9.78,15.03,18.37,17.4,19.57s9.15,4.7,12.6,1.42c0,0,3.36-2.66-2.93-9.25-2.53-2.66-4.78-5.22-6.65-7.53h0Z"/>
      <path class="st1" d="M23.95,11.25S6.88,19.53,6.97,31.06c.08,9.78,15.03,18.37,17.4,19.57s9.38,5.03,12.65,1.43c1.14-1.26,2.02-4.03-2.97-9.27-6.63-6.96-11.33-13.29-12.41-16.12s-2.19-8.7,2.31-15.42h0Z"/>
    </g>
  </g>
  <g>
    <path class="st0" d="M40.57,36.61l9.94-14.94c.51-.78,1.02-1.16,1.52-1.16s1,.39,1.52,1.16l9.94,14.94h-4.06l-7.4-11.2-7.4,11.2h-4.06,0Z"/>
    <path class="st0" d="M76.64,20.64h14.24c.54,0,1.03.06,1.47.19.44.13.84.31,1.2.53.36.23.67.49.93.8s.48.64.66,1c.17.36.31.73.39,1.13.09.39.13.79.13,1.19,0,.41-.04.81-.13,1.21s-.22.78-.39,1.14c-.17.36-.39.69-.66,1s-.57.57-.93.79c-.35.22-.75.4-1.2.52s-.93.19-1.47.19h-.06l5.13,6.28h-4.13l-5.13-6.28h-8.54v6.28h-3.33v-14.14c0-.27.04-.52.13-.75s.21-.42.37-.58.35-.29.58-.37.47-.13.75-.13h0ZM90.82,27.27c.25,0,.46-.05.65-.15.19-.1.34-.24.47-.4s.22-.36.28-.57c.06-.22.09-.44.1-.66,0-.23-.03-.44-.09-.66s-.15-.41-.28-.57c-.12-.17-.28-.3-.47-.4s-.41-.15-.66-.15h-12.67v3.58h12.67Z"/>
    <path class="st0" d="M109.31,20.64h3.34v15.97h-3.34v-15.97h0Z"/>
    <path class="st0" d="M124.15,20.64h4.79l5.87,5.51,5.87-5.51h4.79l-9,8.45v7.52h-3.34v-7.53l-9-8.44h0Z"/>
    <path class="st0" d="M150.47,36.61l9.94-14.94c.51-.78,1.02-1.16,1.52-1.16s1,.39,1.52,1.16l9.94,14.94h-4.06l-7.4-11.2-7.4,11.2h-4.06,0Z"/>
    <path class="st0" d="M186.07,20.64h14.23c.54,0,1.03.06,1.47.19s.85.3,1.21.53c.36.23.67.49.94.8.27.31.49.64.67,1s.31.73.4,1.13.14.79.14,1.2c0,.57-.09,1.13-.27,1.68-.18.54-.45,1.04-.82,1.48.36.45.63.95.81,1.5.18.55.27,1.11.28,1.69,0,.4-.04.8-.13,1.19-.09.39-.22.77-.4,1.12-.18.35-.4.68-.66.99-.27.3-.58.57-.94.79s-.77.39-1.22.52c-.45.13-.95.19-1.49.19h-14.23c-.27,0-.52-.04-.75-.13s-.42-.21-.58-.37-.29-.35-.37-.58-.13-.47-.13-.75v-12.31c0-.27.04-.52.13-.75s.21-.42.37-.58.35-.29.58-.37.47-.13.75-.13h0ZM187.58,23.69v3.23h12.67c.34,0,.62-.08.84-.24.22-.16.39-.36.5-.6.11-.24.17-.5.17-.78s-.06-.54-.17-.78-.28-.44-.5-.6c-.22-.16-.5-.24-.83-.24h-12.67ZM187.58,33.56h12.67c.21,0,.4-.05.56-.15s.29-.24.4-.4.19-.36.24-.57c.05-.22.08-.44.08-.66s-.03-.44-.08-.66c-.05-.22-.13-.41-.24-.57-.11-.17-.24-.3-.4-.4s-.35-.15-.56-.15h-12.67v3.58h0Z"/>
    <path class="st0" d="M217.47,20.64h3.34v15.97h-3.34v-15.97h0Z"/>
    <path class="st0" d="M235.12,35.03c-.5-.48-.89-1.04-1.16-1.67-.28-.63-.41-1.31-.41-2.04v-5.41c0-.73.14-1.4.4-2.02.27-.61.66-1.18,1.17-1.69.51-.51,1.07-.9,1.69-1.17.62-.27,1.29-.4,2.01-.4h9.88c.73,0,1.4.14,2.02.4.62.27,1.18.66,1.69,1.17.51.51.9,1.07,1.17,1.69.27.62.4,1.29.4,2.02v5.41c0,.73-.14,1.41-.41,2.04-.28.63-.66,1.19-1.16,1.67-.24.23-.5.45-.78.64-.28.19-.58.36-.89.5-.31.14-.64.25-.98.32s-.69.12-1.05.12h-9.88c-.36,0-.71-.04-1.05-.12s-.67-.18-.98-.32c-.31-.14-.61-.3-.89-.5s-.54-.41-.78-.64h0ZM236.87,31.61c0,.25.05.49.17.73.11.23.26.44.44.62s.39.33.62.44c.23.11.48.17.73.17h9.88c.25,0,.49-.05.73-.17.23-.11.44-.26.62-.44.18-.18.33-.39.44-.62.11-.23.17-.48.17-.73v-5.96c0-.27-.05-.52-.15-.76-.1-.24-.24-.45-.42-.62-.18-.18-.38-.31-.62-.42-.24-.1-.49-.15-.76-.15h-9.88c-.27,0-.52.05-.76.15-.24.1-.45.24-.62.42-.18.18-.31.38-.42.62-.1.24-.15.49-.15.76v5.96Z"/>
  </g>
</svg>