<?xml version="1.0" encoding="UTF-8"?>
<svg id="Layer_1" xmlns="http://www.w3.org/2000/svg" version="1.1" viewBox="0 0 64 64">
  <!-- Generator: Adobe Illustrator 29.0.0, SVG Export Plug-In . SVG Version: 2.1.0 Build 186)  -->
  <defs>
    <style>
      .st0 {
        fill: #2e3191;
      }

      .st1 {
        fill: #eb1f25;
      }
    </style>
  </defs>
  <path class="st1" d="M23.1,16.52c2.65-2.83,3.14-6.7.98-8.47s-6.19-1.32-8.65,1.68c0,0-2.69,3.29-2.27,8.75.24,3.18,1.36,4.02,2.24,4.17.54.09,1.08-.09,1.51-.43.95-.75,3.62-2.93,6.2-5.69h0Z"/>
  <g>
    <path class="st0" d="M38.51,37.38c-2.69-7.13,4.36-13.92,7.03-16.11,1.11-.91,2.49-2.03,3.42-3.12.29-.35.56-.68.79-1,2.25-3.12-.14-7.57-3.97-7.35-3.23.18-6.76,1.67-8.27,2.35-.45.2-1.31.62-2.43,1.23h0s-13.65,6.63-16.47,16.28c0,.01,0,.02-.01.04-.06.22-.12.44-.17.66-.02.08-.04.16-.06.24h.01c-.18.85-.28,1.71-.28,2.59.08,9.78,15.03,18.37,17.4,19.57s9.15,4.7,12.6,1.42c0,0,3.36-2.66-2.93-9.25-2.53-2.66-4.78-5.22-6.65-7.53h0Z"/>
    <path class="st1" d="M35.07,13.37s-17.07,8.28-16.98,19.81c.08,9.78,15.03,18.37,17.4,19.57s9.38,5.03,12.65,1.43c1.14-1.26,2.02-4.03-2.97-9.27-6.63-6.96-11.33-13.29-12.41-16.12s-2.19-8.7,2.31-15.42h0Z"/>
  </g>
</svg>